<svg xmlns="http://www.w3.org/2000/svg" viewBox="0 0 120 120" width="120" height="120">
  <defs>
    <linearGradient id="bg" x1="0%" y1="0%" x2="100%" y2="100%">
      <stop offset="0%" style="stop-color:#6366f1"/>
      <stop offset="100%" style="stop-color:#8b5cf6"/>
    </linearGradient>
  </defs>
  <!-- Rounded square background -->
  <rect x="4" y="4" width="112" height="112" rx="24" ry="24" fill="url(#bg)"/>
  <!-- Brain icon (simplified) -->
  <g transform="translate(60,56)" fill="none" stroke="#fff" stroke-width="3.5" stroke-linecap="round" stroke-linejoin="round">
    <!-- Left hemisphere -->
    <path d="M-2,-28 C-18,-28 -30,-18 -30,-4 C-30,2 -27,7 -22,10 C-27,13 -30,19 -28,26 C-26,33 -18,36 -12,34 C-8,38 -2,38 -2,34"/>
    <path d="M-2,-28 C-2,-28 -14,-20 -14,-8 C-14,4 -2,10 -2,10"/>
    <path d="M-2,10 C-2,10 -18,14 -18,24"/>
    <!-- Right hemisphere -->
    <path d="M2,-28 C18,-28 30,-18 30,-4 C30,2 27,7 22,10 C27,13 30,19 28,26 C26,33 18,36 12,34 C8,38 2,38 2,34"/>
    <path d="M2,-28 C2,-28 14,-20 14,-8 C14,4 2,10 2,10"/>
    <path d="M2,10 C2,10 18,14 18,24"/>
    <!-- Center line -->
    <line x1="0" y1="-28" x2="0" y2="34"/>
  </g>
  <!-- Sparkle/AI dot -->
  <circle cx="88" cy="24" r="6" fill="#fbbf24"/>
  <circle cx="88" cy="24" r="3" fill="#fff"/>
</svg>
